<svg width="36" height="35" viewBox="0 0 36 35" fill="none" xmlns="http://www.w3.org/2000/svg">
<path d="M0.750008 17.5C0.750011 8.25656 8.32374 0.750001 17.6829 0.750003C27.042 0.750005 34.6157 8.25657 34.6157 17.5C34.6157 26.7434 27.042 34.25 17.6829 34.25C8.32373 34.25 0.750006 26.7434 0.750008 17.5Z" stroke="#9C9FA1" stroke-width="1.5"/>
<path d="M9.36641 17.1377L24.8146 17.1377" stroke="#9C9FA1" stroke-width="1.25" stroke-linecap="round" stroke-linejoin="round"/>
<path d="M17.6009 9.58055L9.60201 16.6217C9.5289 16.6862 9.47036 16.7655 9.43025 16.8543C9.39015 16.9432 9.36941 17.0395 9.36941 17.137C9.36941 17.2345 9.39015 17.3308 9.43025 17.4197C9.47036 17.5085 9.5289 17.5878 9.60201 17.6523L17.6009 24.6948" stroke="#9C9FA1" stroke-width="1.25" stroke-linecap="round" stroke-linejoin="round"/>
</svg>
