<svg width="36" height="35" viewBox="0 0 36 35" fill="none" xmlns="http://www.w3.org/2000/svg">
<path d="M34.6914 17.5C34.6914 26.7434 27.1177 34.25 17.7585 34.25C8.39941 34.25 0.825679 26.7434 0.825681 17.5C0.825682 8.25656 8.39941 0.750001 17.7585 0.750003C27.1177 0.750005 34.6914 8.25657 34.6914 17.5Z" stroke="#9C9FA1" stroke-width="1.5"/>
<path d="M26.075 17.8623L10.6268 17.8623" stroke="#9C9FA1" stroke-width="1.25" stroke-linecap="round" stroke-linejoin="round"/>
<path d="M17.8405 25.4195L25.8394 18.3783C25.9125 18.3138 25.9711 18.2345 26.0112 18.1457C26.0513 18.0568 26.072 17.9605 26.072 17.863C26.072 17.7655 26.0513 17.6692 26.0112 17.5803C25.9711 17.4915 25.9125 17.4122 25.8394 17.3477L17.8405 10.3052" stroke="#9C9FA1" stroke-width="1.25" stroke-linecap="round" stroke-linejoin="round"/>
</svg>
