<svg width="49" height="78" viewBox="0 0 49 78" fill="none" xmlns="http://www.w3.org/2000/svg">
<g clip-path="url(#clip0_40_2138)">
<path d="M48.4362 24.6345C48.4352 21.3462 47.7638 18.0929 46.4634 15.0755C45.163 12.0581 43.2612 9.34056 40.8754 7.09052C38.4896 4.84048 35.6704 3.10571 32.5917 1.99325C29.513 0.88078 26.2401 0.414221 22.9751 0.62236C17.1162 1.01797 11.6043 3.55624 7.48028 7.75779C3.35629 11.9593 0.905742 17.5333 0.591467 23.4269C0.292083 29.1013 2.00843 34.698 5.43419 39.2183C9.99521 45.26 12.4622 52.6367 12.4579 60.2208V60.5459H36.542V60.2301C36.6269 52.5108 39.173 45.0224 43.8061 38.8653C46.8219 34.7404 48.4445 29.7534 48.4362 24.6345V24.6345Z" stroke="#FFCF07" stroke-width="1.22" stroke-linecap="round" stroke-linejoin="round"/>
<path d="M35.7473 64.1222H13.6316C12.9834 64.1222 12.4579 64.6504 12.4579 65.3019V68.3115C12.4579 68.9631 12.9834 69.4913 13.6316 69.4913H35.7473C36.3955 69.4913 36.921 68.9631 36.921 68.3115V65.3019C36.921 64.6504 36.3955 64.1222 35.7473 64.1222Z" stroke="#FFCF07" stroke-width="1.22" stroke-linecap="round" stroke-linejoin="round"/>
<path d="M31.2003 72.0643H18.1879C17.6826 72.0643 17.2729 72.4761 17.2729 72.9839V76.5138C17.2729 77.0217 17.6826 77.4334 18.1879 77.4334H31.2003C31.7056 77.4334 32.1152 77.0217 32.1152 76.5138V72.9839C32.1152 72.4761 31.7056 72.0643 31.2003 72.0643Z" stroke="#FFCF07" stroke-width="1.22" stroke-linecap="round" stroke-linejoin="round"/>
</g>
<defs>
<clipPath id="clip0_40_2138">
<rect width="49" height="78" fill="white"/>
</clipPath>
</defs>
</svg>
