<svg width="25" height="25" viewBox="0 0 25 25" fill="none" xmlns="http://www.w3.org/2000/svg">
<path d="M12.5 0.416748C5.84086 0.416748 0.416656 5.84095 0.416656 12.5001C0.416656 19.1592 5.84086 24.5834 12.5 24.5834C19.1591 24.5834 24.5833 19.1592 24.5833 12.5001C24.5833 5.84095 19.1591 0.416748 12.5 0.416748ZM12.5 2.83341C17.8531 2.83341 22.1667 7.14702 22.1667 12.5001C22.1667 17.3509 18.6206 21.3366 13.9726 22.044V15.3817H16.7858L17.2271 12.5237H13.9726V10.9613C13.9726 9.77355 14.3596 8.71932 15.4713 8.71932H17.2554V6.22477C16.9413 6.18248 16.2783 6.09025 15.0252 6.09025C12.408 6.09025 10.8739 7.47258 10.8739 10.6215V12.5237H8.1835V15.3817H10.8739V22.0204C6.30159 21.2494 2.83332 17.2974 2.83332 12.5001C2.83332 7.14702 7.14692 2.83341 12.5 2.83341Z" fill="#9C9FA1"/>
</svg>
