<svg width="22" height="23" viewBox="0 0 22 23" fill="none" xmlns="http://www.w3.org/2000/svg">
<path d="M6.33333 0.625C3.11683 0.625 0.5 3.33529 0.5 6.66667V16.3333C0.5 19.6647 3.11683 22.375 6.33333 22.375H15.6667C18.8832 22.375 21.5 19.6647 21.5 16.3333V6.66667C21.5 3.33529 18.8832 0.625 15.6667 0.625H6.33333ZM6.33333 3.04167H15.6667C17.5963 3.04167 19.1667 4.66808 19.1667 6.66667V16.3333C19.1667 18.3319 17.5963 19.9583 15.6667 19.9583H6.33333C4.40367 19.9583 2.83333 18.3319 2.83333 16.3333V6.66667C2.83333 4.66808 4.40367 3.04167 6.33333 3.04167ZM16.8333 4.25C16.5239 4.25 16.2272 4.37731 16.0084 4.60391C15.7896 4.83052 15.6667 5.13786 15.6667 5.45833C15.6667 5.7788 15.7896 6.08615 16.0084 6.31275C16.2272 6.53936 16.5239 6.66667 16.8333 6.66667C17.1428 6.66667 17.4395 6.53936 17.6583 6.31275C17.8771 6.08615 18 5.7788 18 5.45833C18 5.13786 17.8771 4.83052 17.6583 4.60391C17.4395 4.37731 17.1428 4.25 16.8333 4.25ZM11 5.45833C7.7835 5.45833 5.16667 8.16863 5.16667 11.5C5.16667 14.8314 7.7835 17.5417 11 17.5417C14.2165 17.5417 16.8333 14.8314 16.8333 11.5C16.8333 8.16863 14.2165 5.45833 11 5.45833ZM11 7.875C12.9297 7.875 14.5 9.50142 14.5 11.5C14.5 13.4986 12.9297 15.125 11 15.125C9.07033 15.125 7.5 13.4986 7.5 11.5C7.5 9.50142 9.07033 7.875 11 7.875Z" fill="#9C9FA1"/>
</svg>
