<svg width="24" height="21" viewBox="0 0 24 21" fill="none" xmlns="http://www.w3.org/2000/svg">
<path d="M12 0.833252C12 0.833252 4.70312 0.833214 2.88312 1.3383C1.87862 1.61621 1.08928 2.43495 0.820943 3.47412C0.333276 5.35912 0.333313 10.4999 0.333313 10.4999C0.333313 10.4999 0.333276 15.6407 0.820943 17.5257C1.08928 18.5661 1.87978 19.3836 2.88312 19.6615C4.70312 20.1666 12 20.1666 12 20.1666C12 20.1666 19.2968 20.1666 21.1168 19.6615C22.1202 19.3836 22.9107 18.5649 23.179 17.5257C23.6667 15.6407 23.6666 10.4999 23.6666 10.4999C23.6666 10.4999 23.6667 5.35912 23.179 3.47412C22.9107 2.43495 22.1202 1.61621 21.1168 1.3383C19.2968 0.833214 12 0.833252 12 0.833252ZM12 3.24992C15.3623 3.24992 19.5727 3.41136 20.513 3.67236C20.7102 3.72674 20.8718 3.89411 20.9254 4.09953C21.2066 5.18461 21.3333 8.4965 21.3333 10.4999C21.3333 12.5033 21.2066 15.814 20.9254 16.9003C20.8729 17.1045 20.7113 17.2719 20.513 17.3275C19.5738 17.5885 15.3623 17.7499 12 17.7499C8.63881 17.7499 4.42846 17.5885 3.48696 17.3275C3.28979 17.2731 3.12819 17.1057 3.07452 16.9003C2.79336 15.8152 2.66665 12.5033 2.66665 10.4999C2.66665 8.4965 2.79336 5.18467 3.07452 4.09717C3.12702 3.89417 3.28863 3.72674 3.48696 3.67236C4.42613 3.41136 8.63765 3.24992 12 3.24992ZM9.66665 6.31323V14.6866L16.6666 10.4999L9.66665 6.31323Z" fill="#9C9FA1"/>
</svg>
